<svg width="30" height="30" viewBox="0 0 30 30" fill="none" xmlns="http://www.w3.org/2000/svg">
<path d="M18.5619 8.67736V8.67723C18.5618 7.97249 18.3527 7.2836 17.9611 6.69767C17.5695 6.11174 17.0129 5.65509 16.3618 5.38546C15.7107 5.11583 14.9942 5.04534 14.303 5.18288C13.6119 5.32043 12.977 5.65985 12.4787 6.15821C11.9804 6.65658 11.641 7.29151 11.5036 7.98272C11.3661 8.67393 11.4367 9.39038 11.7064 10.0415C11.9762 10.6926 12.4329 11.2491 13.0189 11.6406C13.6049 12.0321 14.2938 12.2411 14.9985 12.2411H14.9986C15.9434 12.2399 16.8491 11.8641 17.5171 11.196C18.1851 10.5279 18.5609 9.62212 18.5619 8.67736ZM12.4555 8.67722C12.4556 8.17429 12.6048 7.68268 12.8843 7.26455C13.1638 6.8464 13.561 6.52053 14.0256 6.32812C14.4903 6.13571 15.0016 6.08541 15.4949 6.18359C15.9882 6.28176 16.4413 6.524 16.7969 6.87967C17.1525 7.23534 17.3946 7.68847 17.4927 8.18176C17.5908 8.67505 17.5404 9.18635 17.3479 9.651C17.1554 10.1157 16.8295 10.5128 16.4113 10.7922C15.9931 11.0716 15.5015 11.2207 14.9986 11.2208C14.3243 11.22 13.6778 10.9517 13.201 10.4749C12.7243 9.99802 12.4561 9.35152 12.4555 8.67722Z" fill="#FF8651" stroke="#FF8651" stroke-width="0.2"/>
<path d="M19.0281 19.2462H25.1768H25.1768C25.2801 19.2463 25.381 19.2777 25.4661 19.3363C25.5512 19.3949 25.6165 19.4779 25.6534 19.5744L25.6534 19.5745L28.9969 28.3399L19.0281 19.2462ZM19.0281 19.2462C19.0354 19.2343 19.0426 19.2225 19.0498 19.2109L19.05 19.2104C21.4891 15.1723 22.7247 11.6272 22.7071 8.67859C22.7071 8.67849 22.7071 8.67839 22.7071 8.67829L22.6071 8.67889C22.6074 6.66092 21.8061 4.72547 20.3795 3.29831C18.9528 1.87115 17.0176 1.06919 14.9996 1.06885C12.9817 1.06851 11.0462 1.86981 9.61906 3.29649C8.1919 4.72316 7.38994 6.65834 7.38959 8.67631M19.0281 19.2462L28.997 28.3401C29.0266 28.4173 29.0369 28.5006 29.0272 28.5827C29.0174 28.6649 28.9878 28.7434 28.9408 28.8116C28.8939 28.8797 28.8311 28.9354 28.7578 28.9739C28.6845 29.0123 28.603 29.0323 28.5202 29.0322M7.38959 8.67631L7.2896 8.67571C7.2896 8.67581 7.28959 8.67591 7.28959 8.67602C7.27195 11.6272 8.50754 15.1727 10.9467 19.2104L10.9467 19.2105C10.9539 19.2225 10.9612 19.2344 10.9684 19.2462H4.81991H4.81987C4.71655 19.2463 4.61567 19.2777 4.53057 19.3363C4.44548 19.3949 4.38017 19.4779 4.34329 19.5744L4.34327 19.5745L1.00021 28.3399C1.0002 28.34 1.00018 28.34 1.00017 28.3401C0.970567 28.4173 0.960204 28.5006 0.969976 28.5827C0.979753 28.6649 1.00939 28.7434 1.05633 28.8116C1.10326 28.8797 1.16609 28.9354 1.23938 28.9739C1.31266 29.0123 1.3942 29.0323 1.47695 29.0322M7.38959 8.67631C7.37202 11.6011 8.59733 15.1279 11.0323 19.1587L7.38959 8.67631ZM1.47695 29.0322H1.47678V28.9322L1.47695 29.0322ZM1.47695 29.0322H28.5202M28.5202 29.0322H28.5204V28.9322L28.5202 29.0322ZM8.31014 8.67762V8.67703C8.31029 7.79869 8.48344 6.92898 8.81971 6.11756C9.15598 5.30614 9.64877 4.5689 10.27 3.94793C10.8911 3.32696 11.6286 2.83442 12.4401 2.49843C13.2516 2.16245 14.1214 1.98959 14.9997 1.98975C15.8781 1.9899 16.7478 2.16305 17.5592 2.49931C18.3706 2.83558 19.1079 3.32837 19.7288 3.94956C20.3498 4.57075 20.8423 5.30816 21.1783 6.1197C21.5143 6.93123 21.6872 7.801 21.687 8.67934L21.687 8.67996C21.7044 11.5662 20.3623 14.8002 18.8349 17.5367C17.3642 20.1716 15.7295 22.3317 14.9986 23.2537C14.2676 22.332 12.6329 20.1725 11.1621 17.5376C9.63472 14.8011 8.29261 11.5663 8.31014 8.67762ZM14.6089 24.3918L14.61 24.3931C14.6579 24.4494 14.7174 24.4947 14.7845 24.5257C14.8516 24.5567 14.9247 24.5728 14.9986 24.5728C15.0725 24.5728 15.1455 24.5567 15.2126 24.5257C15.2797 24.4947 15.3393 24.4494 15.3872 24.3931L15.3883 24.3918C16.4682 23.0763 17.4702 21.6987 18.3891 20.2661H24.825L25.289 21.4831L12.6356 25.9833L8.23493 20.2654H11.6075C12.5266 21.6982 13.5288 23.076 14.6089 24.3918L14.6089 24.3918ZM9.97625 28.0119L12.6037 27.0768H12.606L12.6222 27.071L20.2007 24.3766L22.9986 28.0119H9.97625ZM2.21726 28.0116L5.17168 20.2654H6.94732L11.6244 26.3427L6.93219 28.0116H2.21726ZM27.7804 28.0119H24.2871L21.2115 24.0157L25.6537 22.4359L27.7804 28.0119Z" fill="#9B9B9B" stroke="#9B9B9B" stroke-width="0.2"/>
</svg>
