<svg width="36" height="24" viewBox="0 0 36 24" fill="none" xmlns="http://www.w3.org/2000/svg">
<path d="M33.48 10.2673L32.5478 6.53829C32.8026 6.48412 32.9939 6.25801 32.9939 5.98706V5.38586C32.9939 4.08042 31.9318 3.01842 30.6265 3.01842H26.3801V1.77821C26.3801 1.13585 25.8576 0.613281 25.2152 0.613281H3.56992C2.92754 0.613281 2.40498 1.13585 2.40498 1.77821V11.9996C2.40498 12.3108 2.65734 12.5633 2.96868 12.5633C3.27995 12.5633 3.53238 12.3109 3.53238 11.9996V1.77821C3.53238 1.75747 3.54918 1.74067 3.56992 1.74067H25.2151C25.2359 1.74067 25.2527 1.75747 25.2527 1.77821V11.9998C25.2527 12.311 25.505 12.5634 25.8163 12.5634C26.1276 12.5634 26.3801 12.3111 26.3801 11.9998V11.3608H33.0295C33.03 11.3608 33.0304 11.3609 33.0309 11.3609C33.0315 11.3609 33.032 11.3608 33.0325 11.3608C33.8507 11.3614 34.5455 11.8985 34.7841 12.6384H33.0314C32.7201 12.6384 32.4676 12.8908 32.4676 13.2022V14.4047C32.4676 15.3786 33.26 16.1708 34.2339 16.1708H34.8727V18.651H33.3988C32.9146 17.253 31.5857 16.2459 30.0251 16.2459C28.4645 16.2459 27.1354 17.253 26.6513 18.651H26.3799V14.4046C26.3799 14.0933 26.1276 13.8409 25.8162 13.8409C25.5049 13.8409 25.2525 14.0933 25.2525 14.4046V18.6508H13.5575C13.0734 17.2528 11.7444 16.2458 10.1838 16.2458C8.62316 16.2458 7.29412 17.2528 6.81001 18.6508H3.56992C3.54918 18.6508 3.53238 18.634 3.53238 18.6133V17.3732H5.97498C6.28625 17.3732 6.53867 17.1208 6.53867 16.8095C6.53867 16.4982 6.28632 16.2458 5.97498 16.2458H0.563694C0.252421 16.2458 0 16.4982 0 16.8095C0 17.1208 0.252353 17.3732 0.563694 17.3732H2.40505V18.6133C2.40505 19.2557 2.92761 19.7782 3.56999 19.7782H6.61482C6.61468 19.7907 6.61384 19.8032 6.61384 19.8158C6.61384 21.7843 8.21533 23.3857 10.1838 23.3857C12.1522 23.3857 13.7537 21.7843 13.7537 19.8158C13.7537 19.8032 13.7528 19.7907 13.7527 19.7782H26.4561C26.456 19.7907 26.4552 19.8032 26.4552 19.8158C26.4552 21.7843 28.0567 23.3857 30.0251 23.3857C31.9934 23.3857 33.595 21.7843 33.595 19.8158C33.595 19.8032 33.5942 19.7907 33.594 19.7782H35.4364C35.7477 19.7782 36.0001 19.5259 36.0001 19.2146V13.202C36.0002 11.7176 34.9049 10.4843 33.48 10.2673ZM26.3801 4.14574H30.6265C31.3102 4.14574 31.8666 4.70203 31.8666 5.38586V5.4234H26.3801V4.14574ZM26.3801 10.2335V6.55072H31.3888L32.3096 10.2335H26.3801ZM10.1838 22.2585C8.83693 22.2585 7.74115 21.1629 7.74115 19.8159C7.74115 18.469 8.83693 17.3733 10.1838 17.3733C11.5306 17.3733 12.6264 18.469 12.6264 19.8159C12.6264 21.1629 11.5306 22.2585 10.1838 22.2585ZM30.0252 22.2585C28.6783 22.2585 27.5826 21.1629 27.5826 19.8159C27.5826 18.469 28.6783 17.3733 30.0252 17.3733C31.372 17.3733 32.4678 18.469 32.4678 19.8159C32.4678 21.1629 31.372 22.2585 30.0252 22.2585ZM34.8729 15.0434H34.234C33.8817 15.0434 33.5951 14.7569 33.5951 14.4046V13.7658H34.8728V15.0434H34.8729Z" fill="#9B9B9B"/>
<path d="M10.1845 18.6509C9.54205 18.6509 9.01953 19.1734 9.01953 19.8158C9.01953 20.4582 9.54205 20.9808 10.1845 20.9808C10.8268 20.9808 11.3494 20.4582 11.3494 19.8158C11.3494 19.1734 10.8268 18.6509 10.1845 18.6509Z" fill="#9B9B9B"/>
<path d="M30.0282 18.6509C29.3859 18.6509 28.8633 19.1734 28.8633 19.8158C28.8633 20.4582 29.3859 20.9808 30.0282 20.9808C30.6707 20.9808 31.1932 20.4582 31.1932 19.8158C31.1932 19.1734 30.6707 18.6509 30.0282 18.6509Z" fill="#9B9B9B"/>
<path d="M23.411 16.2461H14.9933C14.6821 16.2461 14.4297 16.4984 14.4297 16.8098C14.4297 17.1212 14.682 17.3735 14.9933 17.3735H23.411C23.7222 17.3735 23.9746 17.1212 23.9746 16.8098C23.9746 16.4984 23.7223 16.2461 23.411 16.2461Z" fill="#9B9B9B"/>
<path d="M8.98188 13.8413H1.76683C1.45555 13.8413 1.20312 14.0937 1.20312 14.4051C1.20312 14.7164 1.45548 14.9687 1.76683 14.9687H8.98188C9.2932 14.9687 9.54563 14.7164 9.54563 14.4051C9.54563 14.0937 9.2932 13.8413 8.98188 13.8413Z" fill="#9B9B9B"/>
<path d="M19.6025 6.18999C19.3824 5.96987 19.0255 5.96987 18.8054 6.18999L13.7926 11.2027L11.1849 8.59497C10.9648 8.37486 10.6079 8.37486 10.3877 8.59497C10.1676 8.81517 10.1676 9.172 10.3877 9.39212L13.3941 12.3984C13.5041 12.5085 13.6484 12.5636 13.7926 12.5636C13.9368 12.5636 14.0812 12.5085 14.1912 12.3984L19.6024 6.98714C19.8225 6.76693 19.8225 6.4101 19.6025 6.18999Z" fill="#FF8651"/>
</svg>
