<svg width="12" height="16" viewBox="0 0 12 16" fill="none" xmlns="http://www.w3.org/2000/svg">
<path d="M10.2349 6.58811V4.70575C10.2349 2.35281 8.35254 0.470459 5.9996 0.470459C3.64666 0.470459 1.7643 2.35281 1.7643 4.70575V6.58811C0.964304 6.58811 0.352539 7.19987 0.352539 7.99987V14.1175C0.352539 14.8705 0.964304 15.5293 1.7643 15.5293H10.2349C11.0349 15.5293 11.6467 14.8705 11.6467 14.1175V7.99987C11.6467 7.19987 11.0349 6.58811 10.2349 6.58811ZM2.70548 4.70575C2.70548 2.87046 4.1643 1.41164 5.9996 1.41164C7.83489 1.41164 9.29372 2.87046 9.29372 4.70575V6.58811H2.70548V4.70575ZM6.47019 11.6705V12.7058C6.47019 12.9881 6.28195 13.1763 5.9996 13.1763C5.71725 13.1763 5.52901 12.9881 5.52901 12.7058V11.6705C4.9643 11.4822 4.58783 10.9646 4.58783 10.3528C4.58783 9.55281 5.1996 8.94105 5.9996 8.94105C6.7996 8.94105 7.41136 9.55281 7.41136 10.3528C7.41136 10.9646 7.03489 11.4822 6.47019 11.6705Z" fill="white"/>
</svg>
