<?xml version="1.0" encoding="utf-8"?><svg xmlns="http://www.w3.org/2000/svg" xmlns:xlink="http://www.w3.org/1999/xlink"><symbol viewBox="0 0 31 32" id="Binst" xmlns="http://www.w3.org/2000/svg"><path d="M28.645 12.44c.195-2.423.197-4.87.005-7.282a.469.469 0 00-.934.074 44.8 44.8 0 01-.012 7.206h-3.869v-.99c.564-.262 1.831-.903 2.75-1.752a.968.968 0 00.308-.657c.049-.818.096-3.672-1.307-6.039a.475.475 0 00-.028-.042c-.06-.08-.628-.777-2.192-.777a.469.469 0 00-.46.56c.005.023.42 2.15.07 3.548-.307.125-.95.35-1.574.35-.624 0-1.267-.226-1.574-.35-.35-1.397.065-3.525.07-3.547a.468.468 0 00-.46-.56c-1.563 0-2.132.696-2.191.776a.48.48 0 00-.029.042c-1.405 2.37-1.355 5.222-1.307 6.039a.97.97 0 00.31.657c.917.85 2.185 1.49 2.748 1.752v.99h-8.597V9.282c0-.17.06-.334.168-.463l1.014-1.206a1.663 1.663 0 00.293-1.62l-.98-2.756a1.66 1.66 0 00-1.56-1.1h-1.3a1.66 1.66 0 00-1.561 1.1l-.979 2.755a1.66 1.66 0 00.292 1.62L6.773 8.82a.718.718 0 01.168.462v3.156H2.583a44.959 44.959 0 01.24-9.586 1.854 1.854 0 011.728-1.604 180.833 180.833 0 0121.185 0 1.854 1.854 0 011.728 1.604c.023.178.046.356.067.533a.469.469 0 10.931-.11 40.89 40.89 0 00-.069-.546A2.793 2.793 0 0025.791.312a181.795 181.795 0 00-21.295 0A2.793 2.793 0 001.894 2.73a45.897 45.897 0 00-.252 9.71A1.69 1.69 0 000 14.126v1.386a1.69 1.69 0 001.216 1.62 48.021 48.021 0 00.075 12.03 2.904 2.904 0 002.704 2.512 189.931 189.931 0 0022.297 0 2.904 2.904 0 002.704-2.513c.53-3.99.553-8.035.075-12.029a1.691 1.691 0 001.216-1.62v-1.386a1.69 1.69 0 00-1.642-1.687zm-9.026-1.729c-.017-.007-1.697-.718-2.76-1.702a.036.036 0 01-.011-.025c-.045-.746-.091-3.333 1.154-5.466.06-.057.313-.268.878-.358-.12.86-.26 2.46.112 3.614a.47.47 0 00.24.278c.045.021 1.093.525 2.17.525 1.078 0 2.126-.504 2.17-.525a.47.47 0 00.24-.278c.373-1.153.232-2.754.112-3.614.566.09.82.3.879.358 1.243 2.13 1.198 4.72 1.154 5.467a.034.034 0 01-.01.023c-1.064.985-2.745 1.696-2.762 1.703a.469.469 0 00-.287.433v1.294h-2.991v-1.294a.47.47 0 00-.288-.433zM7.491 8.216L6.477 7.01a.72.72 0 01-.127-.703l.979-2.754a.721.721 0 01.678-.478h1.3a.72.72 0 01.677.477l.98 2.755a.722.722 0 01-.128.703L9.823 8.216c-.25.297-.388.676-.388 1.066v3.156H7.879V9.282c0-.39-.138-.769-.388-1.066zm20.576 20.822a1.965 1.965 0 01-1.83 1.7 189.49 189.49 0 01-22.187 0 1.964 1.964 0 01-1.83-1.7A47.08 47.08 0 012.152 17.2h25.982c.476 3.93.454 7.91-.067 11.838zm1.282-13.526a.75.75 0 01-.75.75H1.688a.752.752 0 01-.751-.75v-1.386a.75.75 0 01.75-.75h26.91c.414 0 .751.336.751.75v1.386z"/><path d="M19.799 18.94c-.88 0-1.594.714-1.594 1.593v2.115c0 .02-.017.037-.036.037H12.12a.037.037 0 01-.037-.037v-2.115c0-.879-.715-1.594-1.594-1.594-.878 0-1.594.715-1.594 1.594v2.115c0 1.36.862 2.58 2.143 3.037a.469.469 0 00.315-.883 2.292 2.292 0 01-1.52-2.154v-2.115a.657.657 0 011.313 0v2.115c0 .537.437.974.974.974h6.048a.975.975 0 00.973-.974v-2.115a.657.657 0 011.313 0v2.115a2.29 2.29 0 01-2.286 2.286h-5.11a.469.469 0 100 .938h5.11a3.228 3.228 0 003.224-3.224v-2.115c0-.879-.715-1.594-1.594-1.594z"/></symbol><symbol viewBox="0 0 32 32" id="Bpig" xmlns="http://www.w3.org/2000/svg"><path d="M28.554 16.052h-1.235l-.038-.093a10.762 10.762 0 00-1.165-2.114l-.132-.187.224-.046C34.225 11.94 33.254.432 25.001.192c-4.642-.07-8.026 4.837-6.328 9.143l.089.223-.24-.019c-.27-.021-.536-.034-.797-.034h-6.181l-.045-.06a5.583 5.583 0 00-4.558-2.24l21.613 8.847zm0 0l.016-.131m-.016.131l.016-.131m0 0a2.521 2.521 0 012.495-2.203c1.046.044 1.047 1.53 0 1.573a.945.945 0 00-.94.944c0 .767-.625 1.39-1.391 1.39h-.923l.038.182c.773 3.647-.596 7.54-3.455 9.931a.882.882 0 00-.308.678v2.607a.787.787 0 01-.787.787h-3.676a.787.787 0 01-.787-.787v-.903l-.164.015a10.33 10.33 0 01-.947.043h-6.71v.845a.787.787 0 01-.787.787h-3.74a.787.787 0 01-.786-.787v-3.075l-.057-.044c-1.01-.803-2.165-2.047-2.8-3.839l-.028-.079-.082-.017A3.271 3.271 0 01.15 20.775v-2.497a3.27 3.27 0 012.78-3.23l.073-.01.036-.066c.607-1.11 1.223-1.979 1.837-2.601l.068-.07m23.626 3.62L4.944 12.3m0 0l-.035-.09m.035.09l-.035-.09m0 0L3.424 8.324a.787.787 0 01.083-.721l1.402 4.61zm-.764-4.956l2.796-.05-3.434.397a.787.787 0 01.638-.347zm26.05-.294v-.006a5.196 5.196 0 00-5.19-5.19 5.196 5.196 0 00-5.19 5.19v.006c.283 6.877 10.095 6.879 10.38 0zm-7.832 23.275h.15v-1.819c0-.73.315-1.414.864-1.878 3.909-3.223 4.121-9.267.55-12.876l-.034-.034-.047-.009a6.764 6.764 0 01-3.953-2.24l-.032-.036-.047-.011a9.246 9.246 0 00-2.09-.253h-6.602a.787.787 0 01-.673-.38 4 4 0 00-3.48-1.92l-1.461.026-.214.004.076.2 1.238 3.239a.787.787 0 01-.247.897l.094.117-.094-.117c-.488.387-1.249 1.222-2.17 3.014a.787.787 0 01-.7.427h-.075c-.934 0-1.693.759-1.693 1.692v2.497c0 .933.76 1.692 1.692 1.692.356 0 .668.239.76.582l.145-.038-.145.038c.518 1.927 1.796 3.167 2.771 3.866a.787.787 0 01.329.64v2.681h2.166V27.28c.044-1.046 1.529-1.047 1.573 0v1.325h6.71c.327 0 .654-.02.977-.055l.134-.015V27.28c.044-1.046 1.529-1.047 1.573 0v1.908a.18.18 0 000 .012l.001.006v1.03h1.954z"/></symbol><symbol viewBox="0 0 32 32" id="Bpig1" xmlns="http://www.w3.org/2000/svg"><path d="M7.624 16.913c-.044 1.047-1.53 1.047-1.574 0a.787.787 0 011.574 0zm5.159-1.672c-1.047-.044-1.047-1.529 0-1.573h4.816c1.047.044 1.047 1.529 0 1.573h-4.816z"/><path d="M28.554 16.052h-1.235l-.038-.093a10.762 10.762 0 00-1.165-2.114l-.132-.187.224-.046C34.225 11.94 33.254.432 25.001.192c-4.642-.07-8.026 4.837-6.328 9.143l.089.223-.24-.019c-.27-.021-.536-.034-.797-.034h-6.181l-.045-.06a5.583 5.583 0 00-4.558-2.24l-2.796.05a.787.787 0 00-.638.347l25.047 8.45zm0 0l.016-.131m-.016.131l.016-.131m0 0a2.521 2.521 0 012.495-2.203M28.57 15.92l2.495-2.203m0 0c1.046.044 1.047 1.53 0 1.573a.945.945 0 00-.94.944c0 .767-.625 1.39-1.391 1.39h-.923l.038.182c.773 3.647-.596 7.54-3.455 9.931a.882.882 0 00-.308.678v2.607a.787.787 0 01-.787.787h-3.676a.787.787 0 01-.787-.787v-.903l-.164.015a10.33 10.33 0 01-.947.043h-6.71v.845a.787.787 0 01-.787.787h-3.74a.787.787 0 01-.786-.787v-3.074l-.057-.044c-1.01-.803-2.165-2.047-2.8-3.839l-.028-.079-.082-.017A3.271 3.271 0 01.15 20.775v-2.497a3.27 3.27 0 012.78-3.23l.073-.01.036-.066c.607-1.11 1.223-1.979 1.837-2.601l.068-.07-.035-.09-1.485-3.888a.787.787 0 01.083-.721l27.558 6.116zm-.87-6.757v-.006a5.196 5.196 0 00-5.19-5.19 5.196 5.196 0 00-5.19 5.19v.006c.283 6.877 10.095 6.879 10.38 0zm-7.832 23.275h.15v-1.819c0-.73.315-1.414.864-1.878 3.909-3.223 4.121-9.267.55-12.876l-.034-.034-.047-.009a6.764 6.764 0 01-3.953-2.24l-.032-.036-.047-.011a9.246 9.246 0 00-2.09-.253h-6.602a.787.787 0 01-.673-.38 4 4 0 00-3.48-1.92l-1.461.026-.214.004.076.2 1.238 3.239a.787.787 0 01-.247.897l.094.117-.094-.117c-.488.387-1.249 1.222-2.17 3.014a.787.787 0 01-.7.427h-.075c-.934 0-1.693.759-1.693 1.692v2.497c0 .933.76 1.692 1.692 1.692.356 0 .668.239.76.582l.145-.038-.145.038c.518 1.927 1.796 3.167 2.771 3.866l.088-.122-.088.122a.787.787 0 01.329.64v2.681h2.166V27.28c.044-1.046 1.529-1.047 1.573 0v1.325h6.71c.327 0 .654-.02.977-.055l.134-.015V27.28c.044-1.046 1.529-1.047 1.573 0v1.908a.18.18 0 000 .012l.001.006v1.03h1.954z"/></symbol><symbol viewBox="0 0 32 32" id="Breuse" xmlns="http://www.w3.org/2000/svg"><path d="M29.983 14.753c-.898-.026-1.709.733-1.726 1.665a12.374 12.374 0 01-11.413 12.145 12.356 12.356 0 01-3.476-.214.469.469 0 00-.189.918 13.29 13.29 0 003.74.23 13.308 13.308 0 0012.275-13.061.76.76 0 01.757-.746c.364-.007.761.339.756.775a14.883 14.883 0 01-4.009 9.881 14.797 14.797 0 01-9.659 4.668 14.805 14.805 0 01-11.721-4.352.47.47 0 00-.799.28l-.046.43a.758.758 0 01-.69.678c-.393.042-.87-.338-.815-.838l.352-3.324c.003-.32.346-.748.794-.722l3.065.15a.76.76 0 01.72.796c-.02.336-.319.74-.793.723l-.33-.016a.469.469 0 00-.355.799 13.278 13.278 0 004.514 2.977.469.469 0 00.347-.87 12.331 12.331 0 01-3.466-2.09c.493-.196 1.007-.828 1.019-1.478a1.698 1.698 0 00-1.61-1.778l-3.062-.149c-.805-.07-1.74.66-1.777 1.572l-.35 3.31c-.102 1.016.742 1.96 1.821 1.873a1.695 1.695 0 001.434-1.054 15.76 15.76 0 0022.093-.945 15.819 15.819 0 004.26-10.503 1.698 1.698 0 00-1.661-1.73zM3.039 18.031c.295-.345.437-.784.4-1.235a12.3 12.3 0 012.94-9.034 12.385 12.385 0 018.485-4.326c3.96-.316 7.741 1.22 10.326 4.146a1.7 1.7 0 00-1.292 1.179c-.26.805.234 1.86 1.147 2.107l3.323.982c.802.283 1.964-.293 2.143-1.232l.172-.594a.469.469 0 00-.9-.26c-.016.056-.179.609-.186.647-.063.315-.518.684-.958.542L25.31 9.97c-.322-.098-.645-.486-.514-.942a.763.763 0 01.948-.512l.402.119a.469.469 0 00.51-.727A13.41 13.41 0 0014.79 2.5c-3.56.284-6.8 1.936-9.123 4.652a13.23 13.23 0 00-3.162 9.718c.024.336-.225.773-.699.815a.76.76 0 01-.82-.695A14.734 14.734 0 014.5 6.167a15.018 15.018 0 012.838-2.571.469.469 0 10-.535-.77 15.95 15.95 0 00-3.016 2.732A15.665 15.665 0 00.052 17.066a1.7 1.7 0 001.692 1.56 1.77 1.77 0 001.295-.595z"/><path d="M9.174 2.508A14.9 14.9 0 0114.668.99c5.276-.42 10.425 2.006 13.44 6.33a.469.469 0 00.834-.138l.119-.41a.764.764 0 01.944-.52c.322.096.648.48.521.938l-.146.506a.469.469 0 00.32.58.49.49 0 00.58-.32l.146-.505c.254-.808-.247-1.86-1.163-2.1a1.705 1.705 0 00-1.908.727C25.174 1.958 19.819-.4 14.594.056a15.834 15.834 0 00-5.838 1.613.469.469 0 10.418.84z"/></symbol><symbol viewBox="0 0 28 36" id="Bshield" xmlns="http://www.w3.org/2000/svg"><path d="M27.088 12.734a.527.527 0 00.527-.527V6.282a.672.672 0 00-.399-.613L14.56.058a.672.672 0 00-.544 0L1.36 5.668a.672.672 0 00-.4.614v10.954a19.86 19.86 0 003.575 11.396 19.86 19.86 0 009.443 7.312c.2.075.42.075.62 0a19.86 19.86 0 009.443-7.312 19.86 19.86 0 003.574-11.396v-2.569a.527.527 0 00-1.054 0v2.57c0 7.844-4.93 14.948-12.273 17.697-7.343-2.748-12.272-9.853-12.272-17.698V6.532L14.288 1.09l12.273 5.44v5.676c0 .29.236.527.527.527z"/><path d="M16.977 17.653c.206.206.54.206.745 0l1.763-1.763a.838.838 0 000-1.184l-1.427-1.427a.838.838 0 00-1.183 0l-3.906 3.906-1.729-1.729a.838.838 0 00-1.184 0L8.63 16.883a.838.838 0 000 1.184l3.748 3.748a.838.838 0 001.184 0l2.39-2.39a.528.528 0 00-.745-.747l-2.237 2.237-3.44-3.44 1.12-1.12 1.728 1.73a.838.838 0 001.184 0l3.905-3.906 1.12 1.12-1.61 1.608a.527.527 0 000 .746z"/><path d="M14.288 33.868a.527.527 0 00.528-.528v-7.592c4.422-.273 7.937-3.958 7.937-8.448s-3.515-8.175-7.937-8.448V2.65a.527.527 0 10-1.055 0v6.203a8.482 8.482 0 00-3.376.935.527.527 0 10.487.936 7.304 7.304 0 012.889-.814v2.536a.527.527 0 101.055 0V9.91c3.84.271 6.882 3.483 6.882 7.39 0 3.91-3.042 7.12-6.882 7.392V23.43a.527.527 0 10-1.055 0v1.262c-3.84-.272-6.882-3.483-6.882-7.391 0-1.953.753-3.797 2.122-5.19a.527.527 0 10-.753-.74 8.416 8.416 0 00-2.424 5.93c0 4.49 3.515 8.175 7.937 8.448v7.592c0 .292.236.528.527.528z"/></symbol><symbol viewBox="0 0 42 27" id="Bvan" xmlns="http://www.w3.org/2000/svg"><path d="M39.06 11.263l-1.088-4.35a.658.658 0 00.52-.644v-.701a2.765 2.765 0 00-2.761-2.762h-4.954V1.359c0-.75-.61-1.359-1.36-1.359H4.166c-.75 0-1.36.61-1.36 1.36v11.924a.658.658 0 001.316 0V1.359c0-.024.02-.044.044-.044h25.253c.024 0 .043.02.043.044v11.925a.658.658 0 001.316 0v-.745h7.76a2.15 2.15 0 012.043 1.49h-2.045a.658.658 0 00-.657.658v1.403c0 1.136.924 2.06 2.06 2.06h.746v2.894h-1.72a4.171 4.171 0 00-3.936-2.806 4.171 4.171 0 00-3.936 2.806h-.317V16.09a.658.658 0 10-1.315 0v4.954H15.817a4.171 4.171 0 00-3.936-2.806 4.171 4.171 0 00-3.936 2.806h-3.78A.044.044 0 014.12 21v-1.447h2.85a.658.658 0 000-1.315H.658a.658.658 0 000 1.315h2.148V21c0 .75.61 1.359 1.359 1.359h3.552v.044a4.17 4.17 0 004.164 4.165 4.17 4.17 0 004.165-4.165l-.001-.044h14.82v.044a4.17 4.17 0 004.164 4.165 4.17 4.17 0 004.165-4.165l-.001-.044h2.15a.658.658 0 00.657-.658v-7.014a3.469 3.469 0 00-2.94-3.424zm-8.283-7.142h4.954c.797 0 1.447.65 1.447 1.447v.044h-6.401v-1.49zm0 7.102V6.927h5.843l1.074 4.296h-6.917zM11.88 25.253a2.853 2.853 0 01-2.85-2.85 2.853 2.853 0 012.85-2.85 2.853 2.853 0 012.85 2.85 2.853 2.853 0 01-2.85 2.85zm23.148 0a2.853 2.853 0 01-2.85-2.85 2.853 2.853 0 012.85-2.85 2.853 2.853 0 012.85 2.85 2.853 2.853 0 01-2.85 2.85zm5.656-8.418h-.745a.746.746 0 01-.746-.745v-.745h1.49v1.49z"/><path d="M11.88 12a1.36 1.36 0 000 2.718c.75 0 1.36-.61 1.36-1.359 0-.75-.61-1.359-1.36-1.359zm23.149 0a1.36 1.36 0 000 2.718c.75 0 1.36-.61 1.36-1.359 0-.75-.61-1.359-1.36-1.359zm-7.715 0h-9.82a.658.658 0 000 1.315h9.82a.658.658 0 000-1.315z"/><path d="M10.477 12H2.06a.658.658 0 000 1.315h8.418a.658.658 0 100-1.315zM22.869 3.193a.658.658 0 00-.93 0L16.09 9.04l-3.043-3.043a.658.658 0 00-.93.93l3.508 3.508a.655.655 0 00.93 0l6.313-6.313a.658.658 0 000-.93z"/></symbol><symbol viewBox="0 0 42 27" id="Bvan1" xmlns="http://www.w3.org/2000/svg"><path d="M39.06 11.263l-1.088-4.35a.658.658 0 00.52-.644v-.701a2.765 2.765 0 00-2.761-2.762h-4.954V1.359c0-.75-.61-1.359-1.36-1.359H4.166c-.75 0-1.36.61-1.36 1.36v11.924a.658.658 0 001.316 0V1.359c0-.024.02-.044.044-.044h25.253c.024 0 .043.02.043.044v11.925a.658.658 0 001.316 0v-.745h7.76a2.15 2.15 0 012.043 1.49h-2.045a.658.658 0 00-.657.658v1.403c0 1.136.924 2.06 2.06 2.06h.746v2.894h-1.72a4.171 4.171 0 00-3.936-2.806 4.171 4.171 0 00-3.936 2.806h-.317V16.09a.658.658 0 10-1.315 0v4.954H15.817a4.171 4.171 0 00-3.936-2.806 4.171 4.171 0 00-3.936 2.806h-3.78A.044.044 0 014.12 21v-1.447h2.85a.658.658 0 000-1.315H.658a.658.658 0 000 1.315h2.148V21c0 .75.61 1.359 1.359 1.359h3.552v.044a4.17 4.17 0 004.164 4.165 4.17 4.17 0 004.165-4.165l-.001-.044h14.82v.044a4.17 4.17 0 004.164 4.165 4.17 4.17 0 004.165-4.165l-.001-.044h2.15a.658.658 0 00.657-.658v-7.014a3.469 3.469 0 00-2.94-3.424zm-8.283-7.142h4.954c.797 0 1.447.65 1.447 1.447v.044h-6.401v-1.49zm0 7.102V6.927h5.843l1.074 4.296h-6.917zM11.88 25.253a2.853 2.853 0 01-2.85-2.85 2.853 2.853 0 012.85-2.85 2.853 2.853 0 012.85 2.85 2.853 2.853 0 01-2.85 2.85zm23.148 0a2.853 2.853 0 01-2.85-2.85 2.853 2.853 0 012.85-2.85 2.853 2.853 0 012.85 2.85 2.853 2.853 0 01-2.85 2.85zm5.656-8.418h-.745a.746.746 0 01-.746-.745v-.745h1.49v1.49z"/><path d="M11.88 12a1.36 1.36 0 000 2.718c.75 0 1.36-.61 1.36-1.359 0-.75-.61-1.359-1.36-1.359zm23.149 0a1.36 1.36 0 000 2.718c.75 0 1.36-.61 1.36-1.359 0-.75-.61-1.359-1.36-1.359zm-7.715 0h-9.82a.658.658 0 000 1.315h9.82a.658.658 0 000-1.315z"/><path d="M10.477 12H2.06a.658.658 0 000 1.315h8.418a.658.658 0 100-1.315zM22.869 3.193a.658.658 0 00-.93 0L16.09 9.04l-3.043-3.043a.658.658 0 00-.93.93l3.508 3.508a.655.655 0 00.93 0l6.313-6.313a.658.658 0 000-.93z"/></symbol><symbol viewBox="0 0 20 17" id="PCheart" xmlns="http://www.w3.org/2000/svg"><path d="M10 16l-.349.358a.5.5 0 00.697 0L10 16zM2.331 8.544l-.348.359.348-.359zm6.429-6.25l-.349.359.349-.359zM10 3.5l-.349.358a.5.5 0 00.697 0L10 3.5zm1.24-1.206l-.348-.358.348.358zm-.892 13.348L2.68 8.186l-.697.717 7.668 7.455.697-.716zm6.972-7.456l-7.669 7.456.697.716 7.67-7.455-.698-.717zM8.411 2.653l1.24 1.205.697-.716-1.24-1.206-.697.717zm1.938 1.205l1.24-1.205-.697-.717-1.24 1.206.697.716zM14.454.5a5.112 5.112 0 00-3.563 1.436l.698.717A4.112 4.112 0 0114.454 1.5v-1zM18.5 5.42a3.86 3.86 0 01-1.18 2.766l.697.717A4.858 4.858 0 0019.5 5.419h-1zm1 0C19.5 2.69 17.228.5 14.454.5v1c2.248 0 4.046 1.768 4.046 3.92h1zM5.546 1.5c1.077 0 2.108.416 2.865 1.153l.698-.717A5.112 5.112 0 005.546.5v1zM1.5 5.42c0-2.152 1.798-3.92 4.046-3.92v-1C2.772.5.5 2.69.5 5.42h1zm1.18 2.766A3.858 3.858 0 011.5 5.419h-1c0 1.31.535 2.563 1.483 3.484l.697-.717z"/></symbol><symbol viewBox="0 0 16 16" id="PCplus" xmlns="http://www.w3.org/2000/svg"><path d="M0 8h16M8 0v16V0z"/></symbol><symbol viewBox="0 0 17 17" id="PCschedule" xmlns="http://www.w3.org/2000/svg"><path d="M17 16H0h17zm-3.967-3.214h-3.4v-7.5h3.4v7.5zm-5.666 0h-3.4V1h3.4v11.786z"/></symbol><symbol viewBox="0 0 16 16" id="PCshare" xmlns="http://www.w3.org/2000/svg"><path d="M5 8h4-4zm6.5-3.5L9 7.995l2.5 3.505v-7zM15 2.999a2 2 0 01-4 0 2 2 0 014 0zm0 9.993a2 2 0 01-4 0 2 2 0 014 0zM5 7.995a2 2 0 01-4 0 2 2 0 014 0z"/></symbol><symbol viewBox="0 0 14 10" id="arrow-r" xmlns="http://www.w3.org/2000/svg"><path d="M13 5H.5M13 5L9 1l4 4zm0 0L9 9l4-4z"/></symbol><symbol viewBox="0 0 17 17" id="check" xmlns="http://www.w3.org/2000/svg"><path d="M3 10.174L8 14l6-11"/></symbol><symbol viewBox="0 0 15 9" id="chevron-bot" xmlns="http://www.w3.org/2000/svg"><path d="M14 1L7.5 8 1 1"/></symbol><symbol viewBox="0 0 13 8" id="chevron-down" xmlns="http://www.w3.org/2000/svg"><path fill-rule="evenodd" clip-rule="evenodd" d="M6.071 7.286L0 1.214 1.214 0l4.857 4.857L10.928 0l1.214 1.214-4.857 4.857-1.214 1.215z"/></symbol><symbol viewBox="0 0 5 8" id="chevron-left" xmlns="http://www.w3.org/2000/svg"><path d="M4 1L1 4l3 3"/></symbol><symbol viewBox="0 0 6 8" id="chevron-right" xmlns="http://www.w3.org/2000/svg"><path d="M1.5 7l3-3-3-3"/></symbol><symbol viewBox="0 0 15 9" id="chevron-top" xmlns="http://www.w3.org/2000/svg"><path d="M1 8l6.5-7L14 8"/></symbol><symbol viewBox="0 0 8 8" id="cross" xmlns="http://www.w3.org/2000/svg"><path d="M4 4.733l3.115 3.115a.518.518 0 10.733-.733L4.733 4 7.848.885a.518.518 0 10-.733-.733L4 3.267.885.152a.518.518 0 10-.733.733L3.267 4 .152 7.115a.517.517 0 000 .733c.202.203.53.203.733 0L4 4.733z"/></symbol><symbol viewBox="0 0 24 24" id="fb" xmlns="http://www.w3.org/2000/svg"><path d="M13.397 20.997v-8.196h2.765l.411-3.209h-3.176V7.548c0-.926.258-1.56 1.587-1.56h1.684v-2.86A22.108 22.108 0 0014.201 3c-2.444 0-4.122 1.492-4.122 4.231v2.355H7.332v3.21h2.753v8.201h3.312z"/></symbol><symbol viewBox="0 0 24 24" id="inst" xmlns="http://www.w3.org/2000/svg"><path d="M11.999 7.377a4.624 4.624 0 100 9.248 4.624 4.624 0 000-9.248zm0 7.627a3.004 3.004 0 110-6.008 3.004 3.004 0 010 6.008zm4.807-6.719a1.078 1.078 0 100-2.156 1.078 1.078 0 000 2.156z"/><path d="M20.533 6.11A4.605 4.605 0 0017.9 3.48a6.607 6.607 0 00-2.186-.42c-.963-.042-1.268-.054-3.71-.054s-2.755 0-3.71.054a6.554 6.554 0 00-2.184.42 4.6 4.6 0 00-2.633 2.63 6.585 6.585 0 00-.419 2.186c-.043.962-.056 1.267-.056 3.71 0 2.442 0 2.753.056 3.71.015.748.156 1.486.419 2.187a4.61 4.61 0 002.634 2.632 6.583 6.583 0 002.185.45c.963.042 1.268.055 3.71.055s2.755 0 3.71-.055a6.616 6.616 0 002.186-.42 4.613 4.613 0 002.633-2.632c.263-.7.404-1.438.419-2.186.043-.962.056-1.267.056-3.71s0-2.753-.056-3.71a6.583 6.583 0 00-.421-2.217zm-1.218 9.533a5.046 5.046 0 01-.311 1.688 2.987 2.987 0 01-1.712 1.71c-.535.2-1.1.305-1.67.312-.95.044-1.218.055-3.654.055-2.438 0-2.687 0-3.655-.055a4.961 4.961 0 01-1.67-.311 2.984 2.984 0 01-1.718-1.711 5.08 5.08 0 01-.311-1.67c-.043-.95-.053-1.217-.053-3.653 0-2.437 0-2.686.053-3.655a5.038 5.038 0 01.311-1.687c.305-.79.93-1.41 1.719-1.712a5.01 5.01 0 011.669-.311c.95-.043 1.218-.055 3.655-.055s2.687 0 3.654.055a4.96 4.96 0 011.67.31 2.99 2.99 0 011.712 1.713 5.06 5.06 0 01.311 1.669c.043.95.054 1.218.054 3.655 0 2.436 0 2.698-.043 3.654h-.011v-.001z"/></symbol><symbol viewBox="0 0 32 32" id="listcamera" xmlns="http://www.w3.org/2000/svg"><path d="M24.666 28.667h-3.333V26H20v2.667H4.667a.667.667 0 00-.667.666 1.333 1.333 0 11-2.667 0V1.652l2.42.968a.667.667 0 00.494 0l3.086-1.235L10.42 2.62a.667.667 0 00.495 0L14 1.385l3.086 1.235a.667.667 0 00.495 0L20 1.652V6h1.333V.667a.666.666 0 00-.914-.62l-3.086 1.235L14.247.048a.667.667 0 00-.495 0l-3.086 1.234L7.581.048a.667.667 0 00-.495 0L4 1.282.914.048A.666.666 0 000 .667v28.666A2.667 2.667 0 002.667 32h20a2.667 2.667 0 002.666-2.667.667.667 0 00-.667-.666zm-2 2H4.976c.12-.209.212-.433.273-.667H23.82a1.333 1.333 0 01-1.154.667z"/><path d="M31.332 7.334H10.665V6H9.332v20h1.333v-1.333h20.667a.667.667 0 00.666-.667V8a.667.667 0 00-.666-.666zm-.667 3.932a3.34 3.34 0 01-2.599-2.599h2.6v2.6zm-20-2.599h16.05a4.674 4.674 0 003.95 3.95v6.093a5.34 5.34 0 00-4.623 4.623H10.665V8.667zM27.39 23.333a4.006 4.006 0 013.276-3.276v3.276H27.39z"/><path d="M27 16a6 6 0 10-6 6 6.007 6.007 0 006-6zm-6 4.667a4.667 4.667 0 110-9.334A4.673 4.673 0 0125.667 16 4.667 4.667 0 0121 20.667zm-18.334 2a.667.667 0 101.333 0 .667.667 0 00-1.333 0zm0 2.666a.667.667 0 101.333 0 .667.667 0 00-1.333 0zm2.666 0a.667.667 0 101.333 0 .667.667 0 00-1.333 0zM7.333 6h-4a.667.667 0 100 1.334h4a.667.667 0 000-1.334zm0 2.667h-4a.667.667 0 000 1.333h4a.667.667 0 100-1.333zm-2.667 2.667H3.333a.667.667 0 100 1.333h1.333a.667.667 0 000-1.333z"/></symbol><symbol viewBox="0 0 14 16" id="location" xmlns="http://www.w3.org/2000/svg"><path fill-rule="evenodd" clip-rule="evenodd" d="M7 0c3.866 0 7 3.1 7 6.924 0 2.53-2.117 5.206-6.262 8.12L7 15.557l-.445-.308C2.217 12.255 0 9.513 0 6.924 0 3.1 3.134 0 7 0zm0 1.539c-3.007 0-5.444 2.41-5.444 5.385 0 1.869 1.786 4.149 5.444 6.75 3.658-2.601 5.444-4.881 5.444-6.75 0-2.974-2.437-5.385-5.444-5.385zM7 3.11a3.111 3.111 0 110 6.222A3.111 3.111 0 017 3.11zm0 1.556a1.556 1.556 0 100 3.11 1.556 1.556 0 000-3.11z"/></symbol><symbol viewBox="0 0 16 16" id="plus" xmlns="http://www.w3.org/2000/svg"><path d="M0 8h16M8 0v16V0z"/></symbol><symbol viewBox="0 0 19 18" id="sort-1" xmlns="http://www.w3.org/2000/svg"><path d="M.5 0h3v3.13h-3zM8 0h3v3.13H8zm7.5 0h3v3.13h-3zM.5 7.435h3v3.13h-3zm7.5 0h3v3.13H8zm7.5 0h3v3.13h-3zM.5 14.87h3V18h-3zm7.5 0h3V18H8zm7.5 0h3V18h-3z"/></symbol><symbol viewBox="0 0 18 18" id="sort-2" xmlns="http://www.w3.org/2000/svg"><path d="M8 0h10v3.13H8zm0 7.435h10v3.13H8zm0 7.435h10V18H8zm-7.5 0h3V18h-3zm0-7.435h3v3.13h-3zM.5 0h3v3.13h-3z"/></symbol><symbol viewBox="0 0 16 16" id="sort-order" xmlns="http://www.w3.org/2000/svg"><path d="M4 1l.354-.354a.5.5 0 00-.708 0L4 1zM3.646.646l-3 3 .708.708 3-3-.708-.708zm0 .708l3 3 .708-.708-3-3-.708.708zM3.5 1v14.5h1V1h-1zm6 3.5h6v-1h-6v1zm0 4h4v-1h-4v1zm0 4h2v-1h-2v1z"/></symbol><symbol viewBox="0 0 36 24" id="van" xmlns="http://www.w3.org/2000/svg"><path d="M33.645 14.323v-.567h1.178v1.135h-.59a.58.58 0 01-.588-.568zm2.405-1.161c0-1.45-1.098-2.654-2.53-2.88l-.91-3.522c.25-.074.435-.3.435-.568V5.61c0-1.29-1.086-2.337-2.418-2.337H26.43V2.125c0-.65-.546-1.175-1.215-1.175H3.57c-.668 0-1.215.526-1.215 1.175V12c0 .33.276.595.614.595A.604.604 0 003.582 12V2.14h21.62V12c0 .33.277.595.614.595A.604.604 0 0026.43 12v-.567h6.604c.77.001 1.428.475 1.68 1.134H33.03a.604.604 0 00-.614.595v1.162c0 .97.817 1.756 1.817 1.756h.589v2.296h-1.39c-.5-1.354-1.84-2.324-3.408-2.324-1.569 0-2.908.97-3.409 2.324h-.186v-4.053a.604.604 0 00-.614-.594.604.604 0 00-.614.595v4.052h-11.61c-.5-1.354-1.84-2.324-3.408-2.324-1.569 0-2.908.97-3.409 2.324H3.582V17.24h2.393a.604.604 0 00.614-.594.604.604 0 00-.614-.595H.564a.604.604 0 00-.614.595c0 .33.276.595.614.595h1.791v1.148c0 .65.547 1.175 1.215 1.175h2.994c.008 1.925 1.63 3.485 3.62 3.485 1.99 0 3.612-1.56 3.62-3.485h12.601c.008 1.925 1.63 3.485 3.62 3.485 1.99 0 3.612-1.56 3.62-3.485h1.791a.604.604 0 00.614-.595v-5.808zm-9.62-8.7h4.196c.653 0 1.183.51 1.19 1.135H26.43V4.463zm0 5.782V6.786h4.92l.895 3.458H26.43zM10.184 21.86c-1.321 0-2.393-1.038-2.393-2.31s1.072-2.31 2.393-2.31c1.32 0 2.392 1.038 2.392 2.31s-1.071 2.31-2.392 2.31zm19.841 0c-1.32 0-2.392-1.038-2.392-2.31s1.071-2.31 2.392-2.31 2.393 1.038 2.393 2.31-1.072 2.31-2.393 2.31z"/><path d="M10 18.95a1.051 1.051 0 000 2.1 1.051 1.051 0 000-2.1zm20 0a1.051 1.051 0 000 2.1 1.051 1.051 0 000-2.1zm-6.59-3h-8.82c-.345 0-.64.239-.64.55 0 .311.295.55.64.55h8.82c.345 0 .64-.239.64-.55 0-.311-.295-.55-.64-.55zm-14.018-2H1.608c-.354 0-.658.238-.658.55 0 .313.304.55.658.55h7.784c.354 0 .658-.238.658-.55 0-.313-.304-.55-.658-.55zm10.471-7.808c.25.255.25.668 0 .923l-5.67 5.793 5.67-6.716zm0 0a.632.632 0 00-.907 0l-5.216 5.33m6.123-5.33l-6.123 5.33m0 0l-2.696-2.756a.632.632 0 00-.907 0 .663.663 0 000 .924l.036-.035-.036.035 3.15 3.218.453-1.386zm0 1.578a.632.632 0 01-.453-.192l.453.192zm0 0a.632.632 0 00.454-.192l-.454.192z"/></symbol><symbol viewBox="0 0 33 23" id="wallet" xmlns="http://www.w3.org/2000/svg"><path d="M30.938 6.028h.2V3.766c0-.964-.784-1.747-1.747-1.747H3.609c-.963 0-1.746.783-1.746 1.747v2.262h29.075zM2.063 7.691h-.2v11.543c0 .964.783 1.747 1.746 1.747h25.782c.963 0 1.747-.783 1.747-1.747V7.691H2.063zM3.609.356h25.782c1.88 0 3.409 1.53 3.409 3.41v15.468c0 1.88-1.53 3.41-3.41 3.41H3.61c-1.88 0-3.41-1.53-3.41-3.41V3.766c0-1.88 1.53-3.41 3.41-3.41z"/><path d="M7.219 17.488H6.187a.831.831 0 01-.83-.832v-1.031a.83.83 0 01.83-.831H7.22a.83.83 0 01.831.831v1.031c0 .46-.372.832-.831.832z"/></symbol></svg>