<?xml version="1.0" encoding="utf-8"?><svg xmlns="http://www.w3.org/2000/svg" xmlns:xlink="http://www.w3.org/1999/xlink"><symbol viewBox="0 0 14 10" id="arrow-r" xmlns="http://www.w3.org/2000/svg"><path d="M13 5H.5M13 5L9 1l4 4zm0 0L9 9l4-4z"/></symbol><symbol viewBox="0 0 17 17" id="check" xmlns="http://www.w3.org/2000/svg"><path d="M3 10.174L8 14l6-11"/></symbol><symbol viewBox="0 0 15 9" id="chevron-bot" xmlns="http://www.w3.org/2000/svg"><path d="M14 1L7.5 8 1 1"/></symbol><symbol viewBox="0 0 13 8" id="chevron-down" xmlns="http://www.w3.org/2000/svg"><path fill-rule="evenodd" clip-rule="evenodd" d="M6.071 7.286L0 1.214 1.214 0l4.857 4.857L10.928 0l1.214 1.214-4.857 4.857-1.214 1.215z"/></symbol><symbol viewBox="0 0 5 8" id="chevron-left" xmlns="http://www.w3.org/2000/svg"><path d="M4 1L1 4l3 3"/></symbol><symbol viewBox="0 0 6 8" id="chevron-right" xmlns="http://www.w3.org/2000/svg"><path d="M1.5 7l3-3-3-3"/></symbol><symbol viewBox="0 0 15 9" id="chevron-top" xmlns="http://www.w3.org/2000/svg"><path d="M1 8l6.5-7L14 8"/></symbol><symbol viewBox="0 0 8 8" id="cross" xmlns="http://www.w3.org/2000/svg"><path d="M4 4.733l3.115 3.115a.518.518 0 10.733-.733L4.733 4 7.848.885a.518.518 0 10-.733-.733L4 3.267.885.152a.518.518 0 10-.733.733L3.267 4 .152 7.115a.517.517 0 000 .733c.202.203.53.203.733 0L4 4.733z"/></symbol><symbol viewBox="0 0 24 24" id="fb" xmlns="http://www.w3.org/2000/svg"><path d="M13.397 20.997v-8.196h2.765l.411-3.209h-3.176V7.548c0-.926.258-1.56 1.587-1.56h1.684v-2.86A22.108 22.108 0 0014.201 3c-2.444 0-4.122 1.492-4.122 4.231v2.355H7.332v3.21h2.753v8.201h3.312z"/></symbol><symbol viewBox="0 0 24 24" id="inst" xmlns="http://www.w3.org/2000/svg"><path d="M11.999 7.377a4.624 4.624 0 100 9.248 4.624 4.624 0 000-9.248zm0 7.627a3.004 3.004 0 110-6.008 3.004 3.004 0 010 6.008zm4.807-6.719a1.078 1.078 0 100-2.156 1.078 1.078 0 000 2.156z"/><path d="M20.533 6.11A4.605 4.605 0 0017.9 3.48a6.607 6.607 0 00-2.186-.42c-.963-.042-1.268-.054-3.71-.054s-2.755 0-3.71.054a6.554 6.554 0 00-2.184.42 4.6 4.6 0 00-2.633 2.63 6.585 6.585 0 00-.419 2.186c-.043.962-.056 1.267-.056 3.71 0 2.442 0 2.753.056 3.71.015.748.156 1.486.419 2.187a4.61 4.61 0 002.634 2.632 6.583 6.583 0 002.185.45c.963.042 1.268.055 3.71.055s2.755 0 3.71-.055a6.616 6.616 0 002.186-.42 4.613 4.613 0 002.633-2.632c.263-.7.404-1.438.419-2.186.043-.962.056-1.267.056-3.71s0-2.753-.056-3.71a6.583 6.583 0 00-.421-2.217zm-1.218 9.533a5.046 5.046 0 01-.311 1.688 2.987 2.987 0 01-1.712 1.71c-.535.2-1.1.305-1.67.312-.95.044-1.218.055-3.654.055-2.438 0-2.687 0-3.655-.055a4.961 4.961 0 01-1.67-.311 2.984 2.984 0 01-1.718-1.711 5.08 5.08 0 01-.311-1.67c-.043-.95-.053-1.217-.053-3.653 0-2.437 0-2.686.053-3.655a5.038 5.038 0 01.311-1.687c.305-.79.93-1.41 1.719-1.712a5.01 5.01 0 011.669-.311c.95-.043 1.218-.055 3.655-.055s2.687 0 3.654.055a4.96 4.96 0 011.67.31 2.99 2.99 0 011.712 1.713 5.06 5.06 0 01.311 1.669c.043.95.054 1.218.054 3.655 0 2.436 0 2.698-.043 3.654h-.011v-.001z"/></symbol><symbol viewBox="0 0 32 32" id="listcamera" xmlns="http://www.w3.org/2000/svg"><path d="M24.666 28.667h-3.333V26H20v2.667H4.667a.667.667 0 00-.667.666 1.333 1.333 0 11-2.667 0V1.652l2.42.968a.667.667 0 00.494 0l3.086-1.235L10.42 2.62a.667.667 0 00.495 0L14 1.385l3.086 1.235a.667.667 0 00.495 0L20 1.652V6h1.333V.667a.666.666 0 00-.914-.62l-3.086 1.235L14.247.048a.667.667 0 00-.495 0l-3.086 1.234L7.581.048a.667.667 0 00-.495 0L4 1.282.914.048A.666.666 0 000 .667v28.666A2.667 2.667 0 002.667 32h20a2.667 2.667 0 002.666-2.667.667.667 0 00-.667-.666zm-2 2H4.976c.12-.209.212-.433.273-.667H23.82a1.333 1.333 0 01-1.154.667z"/><path d="M31.332 7.334H10.665V6H9.332v20h1.333v-1.333h20.667a.667.667 0 00.666-.667V8a.667.667 0 00-.666-.666zm-.667 3.932a3.34 3.34 0 01-2.599-2.599h2.6v2.6zm-20-2.599h16.05a4.674 4.674 0 003.95 3.95v6.093a5.34 5.34 0 00-4.623 4.623H10.665V8.667zM27.39 23.333a4.006 4.006 0 013.276-3.276v3.276H27.39z"/><path d="M27 16a6 6 0 10-6 6 6.007 6.007 0 006-6zm-6 4.667a4.667 4.667 0 110-9.334A4.673 4.673 0 0125.667 16 4.667 4.667 0 0121 20.667zm-18.334 2a.667.667 0 101.333 0 .667.667 0 00-1.333 0zm0 2.666a.667.667 0 101.333 0 .667.667 0 00-1.333 0zm2.666 0a.667.667 0 101.333 0 .667.667 0 00-1.333 0zM7.333 6h-4a.667.667 0 100 1.334h4a.667.667 0 000-1.334zm0 2.667h-4a.667.667 0 000 1.333h4a.667.667 0 100-1.333zm-2.667 2.667H3.333a.667.667 0 100 1.333h1.333a.667.667 0 000-1.333z"/></symbol><symbol viewBox="0 0 14 16" id="location" xmlns="http://www.w3.org/2000/svg"><path fill-rule="evenodd" clip-rule="evenodd" d="M7 0c3.866 0 7 3.1 7 6.924 0 2.53-2.117 5.206-6.262 8.12L7 15.557l-.445-.308C2.217 12.255 0 9.513 0 6.924 0 3.1 3.134 0 7 0zm0 1.539c-3.007 0-5.444 2.41-5.444 5.385 0 1.869 1.786 4.149 5.444 6.75 3.658-2.601 5.444-4.881 5.444-6.75 0-2.974-2.437-5.385-5.444-5.385zM7 3.11a3.111 3.111 0 110 6.222A3.111 3.111 0 017 3.11zm0 1.556a1.556 1.556 0 100 3.11 1.556 1.556 0 000-3.11z"/></symbol><symbol viewBox="0 0 16 16" id="plus" xmlns="http://www.w3.org/2000/svg"><path d="M0 8h16M8 0v16V0z"/></symbol><symbol viewBox="0 0 19 18" id="sort-1" xmlns="http://www.w3.org/2000/svg"><path d="M.5 0h3v3.13h-3zM8 0h3v3.13H8zm7.5 0h3v3.13h-3zM.5 7.435h3v3.13h-3zm7.5 0h3v3.13H8zm7.5 0h3v3.13h-3zM.5 14.87h3V18h-3zm7.5 0h3V18H8zm7.5 0h3V18h-3z"/></symbol><symbol viewBox="0 0 18 18" id="sort-2" xmlns="http://www.w3.org/2000/svg"><path d="M8 0h10v3.13H8zm0 7.435h10v3.13H8zm0 7.435h10V18H8zm-7.5 0h3V18h-3zm0-7.435h3v3.13h-3zM.5 0h3v3.13h-3z"/></symbol><symbol viewBox="0 0 16 16" id="sort-order" xmlns="http://www.w3.org/2000/svg"><path d="M4 1l.354-.354a.5.5 0 00-.708 0L4 1zM3.646.646l-3 3 .708.708 3-3-.708-.708zm0 .708l3 3 .708-.708-3-3-.708.708zM3.5 1v14.5h1V1h-1zm6 3.5h6v-1h-6v1zm0 4h4v-1h-4v1zm0 4h2v-1h-2v1z"/></symbol><symbol viewBox="0 0 36 24" id="van" xmlns="http://www.w3.org/2000/svg"><path d="M33.645 14.323v-.567h1.178v1.135h-.59a.58.58 0 01-.588-.568zm2.405-1.161c0-1.45-1.098-2.654-2.53-2.88l-.91-3.522c.25-.074.435-.3.435-.568V5.61c0-1.29-1.086-2.337-2.418-2.337H26.43V2.125c0-.65-.546-1.175-1.215-1.175H3.57c-.668 0-1.215.526-1.215 1.175V12c0 .33.276.595.614.595A.604.604 0 003.582 12V2.14h21.62V12c0 .33.277.595.614.595A.604.604 0 0026.43 12v-.567h6.604c.77.001 1.428.475 1.68 1.134H33.03a.604.604 0 00-.614.595v1.162c0 .97.817 1.756 1.817 1.756h.589v2.296h-1.39c-.5-1.354-1.84-2.324-3.408-2.324-1.569 0-2.908.97-3.409 2.324h-.186v-4.053a.604.604 0 00-.614-.594.604.604 0 00-.614.595v4.052h-11.61c-.5-1.354-1.84-2.324-3.408-2.324-1.569 0-2.908.97-3.409 2.324H3.582V17.24h2.393a.604.604 0 00.614-.594.604.604 0 00-.614-.595H.564a.604.604 0 00-.614.595c0 .33.276.595.614.595h1.791v1.148c0 .65.547 1.175 1.215 1.175h2.994c.008 1.925 1.63 3.485 3.62 3.485 1.99 0 3.612-1.56 3.62-3.485h12.601c.008 1.925 1.63 3.485 3.62 3.485 1.99 0 3.612-1.56 3.62-3.485h1.791a.604.604 0 00.614-.595v-5.808zm-9.62-8.7h4.196c.653 0 1.183.51 1.19 1.135H26.43V4.463zm0 5.782V6.786h4.92l.895 3.458H26.43zM10.184 21.86c-1.321 0-2.393-1.038-2.393-2.31s1.072-2.31 2.393-2.31c1.32 0 2.392 1.038 2.392 2.31s-1.071 2.31-2.392 2.31zm19.841 0c-1.32 0-2.392-1.038-2.392-2.31s1.071-2.31 2.392-2.31 2.393 1.038 2.393 2.31-1.072 2.31-2.393 2.31z"/><path d="M10 18.95a1.051 1.051 0 000 2.1 1.051 1.051 0 000-2.1zm20 0a1.051 1.051 0 000 2.1 1.051 1.051 0 000-2.1zm-6.59-3h-8.82c-.345 0-.64.239-.64.55 0 .311.295.55.64.55h8.82c.345 0 .64-.239.64-.55 0-.311-.295-.55-.64-.55zm-14.018-2H1.608c-.354 0-.658.238-.658.55 0 .313.304.55.658.55h7.784c.354 0 .658-.238.658-.55 0-.313-.304-.55-.658-.55zm10.471-7.808c.25.255.25.668 0 .923l-5.67 5.793 5.67-6.716zm0 0a.632.632 0 00-.907 0l-5.216 5.33m6.123-5.33l-6.123 5.33m0 0l-2.696-2.756a.632.632 0 00-.907 0 .663.663 0 000 .924l.036-.035-.036.035 3.15 3.218.453-1.386zm0 1.578a.632.632 0 01-.453-.192l.453.192zm0 0a.632.632 0 00.454-.192l-.454.192z"/></symbol><symbol viewBox="0 0 33 23" id="wallet" xmlns="http://www.w3.org/2000/svg"><path d="M30.938 6.028h.2V3.766c0-.964-.784-1.747-1.747-1.747H3.609c-.963 0-1.746.783-1.746 1.747v2.262h29.075zM2.063 7.691h-.2v11.543c0 .964.783 1.747 1.746 1.747h25.782c.963 0 1.747-.783 1.747-1.747V7.691H2.063zM3.609.356h25.782c1.88 0 3.409 1.53 3.409 3.41v15.468c0 1.88-1.53 3.41-3.41 3.41H3.61c-1.88 0-3.41-1.53-3.41-3.41V3.766c0-1.88 1.53-3.41 3.41-3.41z"/><path d="M7.219 17.488H6.187a.831.831 0 01-.83-.832v-1.031a.83.83 0 01.83-.831H7.22a.83.83 0 01.831.831v1.031c0 .46-.372.832-.831.832z"/></symbol></svg>