<svg width="36" height="24" viewBox="0 0 36 24" fill="none" xmlns="http://www.w3.org/2000/svg">
<path d="M33.645 14.3235V13.7564H34.8227V14.8907H34.2339C33.9076 14.8907 33.645 14.6346 33.645 14.3235ZM36.05 13.1617C36.0501 11.7123 34.9518 10.5084 33.5201 10.2821L32.6087 6.7603C32.8595 6.68639 33.0438 6.46074 33.0438 6.19151V5.6107C33.0438 4.32031 31.9577 3.27356 30.6264 3.27356H26.43V2.12542C26.43 1.47562 25.8835 0.95 25.2151 0.95H3.56991C2.90156 0.95 2.35498 1.47562 2.35498 2.12542V12.0001C2.35498 12.33 2.63135 12.5947 2.96867 12.5947C3.30591 12.5947 3.58237 12.3301 3.58237 12.0001V2.13915H25.2026V12.0003C25.2026 12.3302 25.479 12.5948 25.8163 12.5948C26.1535 12.5948 26.43 12.3303 26.43 12.0003V11.433H33.0278C33.0287 11.433 33.0297 11.433 33.0308 11.433C33.032 11.433 33.0331 11.433 33.0339 11.433C33.8047 11.4341 34.4618 11.9076 34.7131 12.5673H33.0313C32.694 12.5673 32.4175 12.8318 32.4175 13.1619V14.3236C32.4175 15.2937 33.2339 16.0799 34.2338 16.0799H34.8226V18.3759H33.4337C32.9326 17.0225 31.5938 16.0524 30.025 16.0524C28.4562 16.0524 27.1172 17.0225 26.6162 18.3759H26.4298V14.3235C26.4298 13.9935 26.1535 13.729 25.8162 13.729C25.4789 13.729 25.2024 13.9935 25.2024 14.3235V18.3757H13.5925C13.0915 17.0224 11.7525 16.0523 10.1837 16.0523C8.61496 16.0523 7.27599 17.0224 6.77499 18.3757H3.58237V17.2415H5.97496C6.31221 17.2415 6.58865 16.9768 6.58865 16.6469C6.58865 16.3169 6.31227 16.0523 5.97496 16.0523H0.563693C0.226453 16.0523 -0.05 16.3169 -0.05 16.6469C-0.05 16.9768 0.226371 17.2415 0.563693 17.2415H2.35505V18.3895C2.35505 19.0393 2.90163 19.5649 3.56998 19.5649H6.56385C6.57153 21.4896 8.19406 23.05 10.1837 23.05C12.1734 23.05 13.796 21.4896 13.8036 19.5649H26.4051C26.4128 21.4896 28.0353 23.05 30.025 23.05C32.0146 23.05 33.6372 21.4896 33.6449 19.5649H35.4363C35.7735 19.5649 36.05 19.3003 36.05 18.9703V13.1617ZM26.43 4.46264H30.6264C31.2794 4.46264 31.8088 4.97182 31.8164 5.59697H26.43V4.46264ZM26.43 10.2439V6.78605H31.35L32.2449 10.2439H26.43ZM10.1837 21.8611C8.86288 21.8611 7.79113 20.8233 7.79113 19.5513C7.79113 18.2793 8.86288 17.2416 10.1837 17.2416C11.5046 17.2416 12.5763 18.2793 12.5763 19.5513C12.5763 20.8233 11.5046 21.8611 10.1837 21.8611ZM30.0251 21.8611C28.7042 21.8611 27.6325 20.8233 27.6325 19.5513C27.6325 18.2793 28.7042 17.2416 30.0251 17.2416C31.346 17.2416 32.4177 18.2793 32.4177 19.5513C32.4177 20.8233 31.346 21.8611 30.0251 21.8611Z" fill="#9B9B9B" stroke="#9B9B9B" stroke-width="0.1"/>
<path d="M10 18.95C9.42092 18.95 8.95 19.4209 8.95 20C8.95 20.579 9.42092 21.05 10 21.05C10.579 21.05 11.05 20.579 11.05 20C11.05 19.4209 10.579 18.95 10 18.95Z" fill="#9B9B9B" stroke="#9B9B9B" stroke-width="0.1"/>
<path d="M30 18.95C29.421 18.95 28.95 19.4209 28.95 20C28.95 20.579 29.421 21.05 30 21.05C30.5791 21.05 31.05 20.579 31.05 20C31.05 19.4209 30.5791 18.95 30 18.95Z" fill="#9B9B9B" stroke="#9B9B9B" stroke-width="0.1"/>
<path d="M23.4095 15.95H14.5905C14.245 15.95 13.95 16.1887 13.95 16.5C13.95 16.8113 14.2449 17.05 14.5905 17.05H23.4095C23.755 17.05 24.05 16.8113 24.05 16.5C24.05 16.1887 23.7551 15.95 23.4095 15.95Z" fill="#9B9B9B" stroke="#9B9B9B" stroke-width="0.1"/>
<path d="M9.39182 13.95H1.60813C1.25431 13.95 0.95 14.1875 0.95 14.5C0.95 14.8125 1.25423 15.05 1.60813 15.05H9.39182C9.74568 15.05 10.05 14.8125 10.05 14.5C10.05 14.1875 9.74568 13.95 9.39182 13.95Z" fill="#9B9B9B" stroke="#9B9B9B" stroke-width="0.1"/>
<path d="M19.8629 6.14176L19.8629 6.14177C20.1124 6.39685 20.1124 6.80992 19.8628 7.06509L19.8628 7.0651L14.1935 12.8581L19.8629 6.14176ZM19.8629 6.14176C19.6126 5.88608 19.2064 5.88608 18.9562 6.14176L13.7402 11.4716M19.8629 6.14176L13.7402 11.4716M13.7402 11.4716L11.0439 8.71643C10.7936 8.46075 10.3874 8.46075 10.1372 8.71643L10.1372 8.71644C9.8876 8.97161 9.88759 9.38468 10.1372 9.63977L10.173 9.60479L10.1372 9.63977L13.2869 12.8581L13.7402 11.4716ZM13.7402 13.05C13.5761 13.05 13.4118 12.986 13.2869 12.8581L13.7402 13.05ZM13.7402 13.05C13.9043 13.05 14.0686 12.986 14.1935 12.8581L13.7402 13.05Z" fill="#9B9B9B" stroke="#9B9B9B" stroke-width="0.1"/>
</svg>
