<svg width="33" height="23" viewBox="0 0 33 23" fill="none" xmlns="http://www.w3.org/2000/svg">
<path d="M30.9375 6.02812H31.1375V5.82812V3.76562C31.1375 2.80226 30.354 2.01875 29.3906 2.01875H3.60938C2.64601 2.01875 1.8625 2.80226 1.8625 3.76562V5.82812V6.02812H2.0625H30.9375ZM2.0625 7.69063H1.8625V7.89062V19.2344C1.8625 20.1977 2.64601 20.9813 3.60938 20.9813H29.3906C30.354 20.9813 31.1375 20.1977 31.1375 19.2344V7.89062V7.69063H30.9375H2.0625ZM3.60938 0.35625H29.3906C31.2704 0.35625 32.8 1.8859 32.8 3.76562V19.2344C32.8 21.1141 31.2704 22.6437 29.3906 22.6437H3.60938C1.72965 22.6437 0.2 21.1141 0.2 19.2344V3.76562C0.2 1.8859 1.72965 0.35625 3.60938 0.35625Z" fill="#FF8651" stroke="white" stroke-width="0.4"/>
<path d="M7.21875 17.4875H6.1875C5.72845 17.4875 5.35625 17.1153 5.35625 16.6562V15.625C5.35625 15.1659 5.72845 14.7938 6.1875 14.7938H7.21875C7.6778 14.7938 8.05 15.1659 8.05 15.625V16.6562C8.05 17.1153 7.6778 17.4875 7.21875 17.4875Z" fill="#FF8651" stroke="white" stroke-width="0.4"/>
</svg>
